<svg width="181" height="57" viewBox="0 0 181 57" fill="none" xmlns="http://www.w3.org/2000/svg">
<path d="M9.56329 46.4033L4.63376 39.239V49.6896H0V32.3706H4.79808L10.122 40.1264L15.3801 32.3706H20.1454V49.6896H15.4787V39.239L10.6807 46.4033H9.56329Z" fill="white"/>
<path d="M31.0111 49.9526C28.2068 49.9526 26.0487 49.1638 24.537 47.5864C23.0253 45.987 22.2694 43.7742 22.2694 40.9479C22.2694 39.5896 22.4666 38.3627 22.861 37.2672C23.2772 36.1499 23.8469 35.1968 24.5699 34.4081C25.3148 33.6194 26.224 33.0278 27.2975 32.6335C28.393 32.2172 29.6308 32.0091 31.0111 32.0091C32.3695 32.0091 33.5854 32.2172 34.659 32.6335C35.7544 33.0278 36.6746 33.6194 37.4195 34.4081C38.1863 35.1968 38.7669 36.1499 39.1613 37.2672C39.5775 38.3627 39.7857 39.5896 39.7857 40.9479C39.7857 43.7961 39.0189 46.0089 37.4852 47.5864C35.9735 49.1638 33.8155 49.9526 31.0111 49.9526ZM31.0111 36.1499C29.6089 36.1499 28.5573 36.61 27.8562 37.5301C27.177 38.4503 26.8374 39.6005 26.8374 40.9808C26.8374 42.383 27.177 43.5442 27.8562 44.4643C28.5573 45.3845 29.6089 45.8446 31.0111 45.8446C32.4133 45.8446 33.443 45.3845 34.1003 44.4643C34.7795 43.5442 35.1191 42.383 35.1191 40.9808C35.1191 39.6005 34.7795 38.4503 34.1003 37.5301C33.443 36.61 32.4133 36.1499 31.0111 36.1499Z" fill="white"/>
<path d="M49.8596 45.8446C50.736 45.8446 51.4261 45.6365 51.93 45.2202C52.4559 44.8039 52.7735 44.3329 52.8831 43.8071H57.7469C57.5935 44.9244 57.2758 45.8665 56.7938 46.6333C56.3119 47.4002 55.7094 48.0355 54.9864 48.5394C54.2853 49.0433 53.4856 49.4048 52.5873 49.6239C51.689 49.843 50.7579 49.9526 49.7939 49.9526C48.3479 49.9526 47.0882 49.7554 46.0146 49.361C44.963 48.9447 44.0866 48.3532 43.3855 47.5864C42.6844 46.7977 42.1477 45.8556 41.7752 44.7601C41.4247 43.6428 41.2494 42.3939 41.2494 41.0137C41.2494 39.6772 41.4466 38.4503 41.8409 37.333C42.2353 36.2156 42.794 35.2626 43.517 34.4738C44.2619 33.6851 45.1711 33.0826 46.2447 32.6663C47.3182 32.2282 48.5451 32.0091 49.9254 32.0091C50.9332 32.0091 51.8753 32.1296 52.7516 32.3706C53.6499 32.6116 54.4386 32.984 55.1178 33.4879C55.8189 33.9918 56.3885 34.6381 56.8267 35.4269C57.2868 36.1937 57.5935 37.1139 57.7469 38.1874H52.8831C52.7735 37.6616 52.4449 37.1905 51.8972 36.7743C51.3714 36.358 50.6812 36.1499 49.8268 36.1499C49.1038 36.1499 48.4794 36.2813 47.9536 36.5442C47.4496 36.8071 47.0334 37.1686 46.7047 37.6287C46.398 38.0888 46.1789 38.6146 46.0475 39.2062C45.916 39.7977 45.8503 40.4221 45.8503 41.0794C45.8503 42.4816 46.1461 43.6318 46.7376 44.5301C47.3511 45.4064 48.3917 45.8446 49.8596 45.8446Z" fill="white"/>
<path d="M58.0224 36.3799V32.3706H74.1584V36.3799H68.3744V49.6896H63.7406V36.3799H58.0224Z" fill="white"/>
<path d="M83.3296 49.9526C80.5253 49.9526 78.3672 49.1638 76.8555 47.5864C75.3438 45.987 74.5879 43.7742 74.5879 40.9479C74.5879 39.5896 74.7851 38.3627 75.1795 37.2672C75.5957 36.1499 76.1654 35.1968 76.8884 34.4081C77.6333 33.6194 78.5425 33.0278 79.616 32.6335C80.7115 32.2172 81.9493 32.0091 83.3296 32.0091C84.688 32.0091 85.9039 32.2172 86.9775 32.6335C88.0729 33.0278 88.9931 33.6194 89.738 34.4081C90.5048 35.1968 91.0854 36.1499 91.4798 37.2672C91.896 38.3627 92.1042 39.5896 92.1042 40.9479C92.1042 43.7961 91.3374 46.0089 89.8037 47.5864C88.292 49.1638 86.134 49.9526 83.3296 49.9526ZM83.3296 36.1499C81.9274 36.1499 80.8758 36.61 80.1747 37.5301C79.4955 38.4503 79.156 39.6005 79.156 40.9808C79.156 42.383 79.4955 43.5442 80.1747 44.4643C80.8758 45.3845 81.9274 45.8446 83.3296 45.8446C84.7318 45.8446 85.7615 45.3845 86.4188 44.4643C87.098 43.5442 87.4376 42.383 87.4376 40.9808C87.4376 39.6005 87.098 38.4503 86.4188 37.5301C85.7615 36.61 84.7318 36.1499 83.3296 36.1499Z" fill="white"/>
<path d="M92.5163 36.3799V32.3706H108.652V36.3799H102.868V49.6896H98.2345V36.3799H92.5163Z" fill="white"/>
<path d="M114.439 34.7039C115.118 33.8713 115.961 33.225 116.969 32.7649C117.999 32.2829 119.028 32.031 120.058 32.0091C121.285 31.9872 122.424 32.2062 123.476 32.6663C124.528 33.1045 125.404 33.8494 126.105 34.9011C126.675 35.6679 127.091 36.5661 127.354 37.5959C127.617 38.6256 127.748 39.7101 127.748 40.8494C127.748 42.2734 127.573 43.5661 127.222 44.7273C126.894 45.8665 126.324 46.8524 125.514 47.685C124.834 48.4299 124.002 48.9995 123.016 49.3939C122.03 49.7663 121.044 49.9526 120.058 49.9526C119.576 49.9526 119.094 49.9197 118.612 49.854C118.13 49.8101 117.648 49.7116 117.166 49.5582C116.684 49.4048 116.202 49.1857 115.72 48.9009C115.26 48.6161 114.822 48.2327 114.406 47.7507V56.9196H109.772V32.3706H114.176L114.439 34.7039ZM118.777 36.1499C118.097 36.1499 117.484 36.2813 116.936 36.5442C116.41 36.7852 115.961 37.1248 115.589 37.563C115.216 38.0012 114.921 38.5051 114.701 39.0747C114.504 39.6444 114.406 40.2578 114.406 40.9151C114.384 42.383 114.767 43.5661 115.556 44.4643C116.367 45.3407 117.462 45.8008 118.842 45.8446C119.587 45.8446 120.223 45.7241 120.748 45.4831C121.274 45.2421 121.701 44.9025 122.03 44.4643C122.381 44.0262 122.643 43.5113 122.819 42.9198C123.016 42.3282 123.115 41.6819 123.115 40.9808C123.115 40.3016 123.016 39.6663 122.819 39.0747C122.643 38.4832 122.37 37.9683 121.997 37.5301C121.647 37.092 121.208 36.7524 120.683 36.5114C120.157 36.2704 119.521 36.1499 118.777 36.1499Z" fill="white"/>
<path d="M137.666 46.1732C138.323 46.1732 138.882 46.0747 139.342 45.8775C139.824 45.6584 140.219 45.3078 140.525 44.8258H145.389C145.148 45.7241 144.776 46.5019 144.272 47.1592C143.79 47.8164 143.198 48.3532 142.497 48.7695C141.818 49.1857 141.062 49.4925 140.23 49.6896C139.397 49.8649 138.521 49.9526 137.6 49.9526C134.796 49.9526 132.671 49.1638 131.225 47.5864C129.801 46.0089 129.089 43.7961 129.089 40.9479C129.089 39.6553 129.275 38.4613 129.647 37.3658C130.042 36.2704 130.59 35.3283 131.291 34.5396C131.992 33.7289 132.857 33.1045 133.887 32.6663C134.938 32.2282 136.133 32.0091 137.469 32.0091C139.025 32.0091 140.372 32.2829 141.511 32.8307C142.65 33.3784 143.549 34.1342 144.206 35.0982C144.885 36.0403 145.334 37.1467 145.553 38.4175C145.794 39.6882 145.794 41.0465 145.553 42.4925H133.723C133.81 43.5223 134.172 44.3986 134.807 45.1216C135.442 45.8227 136.395 46.1732 137.666 46.1732ZM141.248 39.3048C141.248 38.757 141.15 38.275 140.952 37.8588C140.755 37.4206 140.492 37.07 140.164 36.8071C139.835 36.5223 139.441 36.3142 138.981 36.1827C138.543 36.0513 138.082 35.9856 137.6 35.9856C136.439 36.0075 135.53 36.3251 134.873 36.9386C134.237 37.5301 133.865 38.3189 133.755 39.3048H141.248Z" fill="white"/>
<path d="M155.845 45.8446C156.721 45.8446 157.411 45.6365 157.915 45.2202C158.441 44.8039 158.758 44.3329 158.868 43.8071H163.732C163.578 44.9244 163.261 45.8665 162.779 46.6333C162.297 47.4002 161.694 48.0355 160.971 48.5394C160.27 49.0433 159.471 49.4048 158.572 49.6239C157.674 49.843 156.743 49.9526 155.779 49.9526C154.333 49.9526 153.073 49.7554 152 49.361C150.948 48.9447 150.072 48.3532 149.37 47.5864C148.669 46.7977 148.133 45.8556 147.76 44.7601C147.41 43.6428 147.234 42.3939 147.234 41.0137C147.234 39.6772 147.432 38.4503 147.826 37.333C148.22 36.2156 148.779 35.2626 149.502 34.4738C150.247 33.6851 151.156 33.0826 152.23 32.6663C153.303 32.2282 154.53 32.0091 155.91 32.0091C156.918 32.0091 157.86 32.1296 158.737 32.3706C159.635 32.6116 160.424 32.984 161.103 33.4879C161.804 33.9918 162.373 34.6381 162.812 35.4269C163.272 36.1937 163.578 37.1139 163.732 38.1874H158.868C158.758 37.6616 158.43 37.1905 157.882 36.7743C157.356 36.358 156.666 36.1499 155.812 36.1499C155.089 36.1499 154.464 36.2813 153.938 36.5442C153.435 36.8071 153.018 37.1686 152.69 37.6287C152.383 38.0888 152.164 38.6146 152.032 39.2062C151.901 39.7977 151.835 40.4221 151.835 41.0794C151.835 42.4816 152.131 43.6318 152.723 44.5301C153.336 45.4064 154.377 45.8446 155.845 45.8446Z" fill="white"/>
<path d="M164.007 36.3799V32.3706H180.143V36.3799H174.359V49.6896H169.726V36.3799H164.007Z" fill="white"/>
<path fill-rule="evenodd" clip-rule="evenodd" d="M0 27.7054V0H74.1401V27.7054H67.4965H67.3833C63.3305 14.8019 51.2757 5.44217 37.0347 5.44217C22.7937 5.44217 10.7389 14.8019 6.6861 27.7054H0Z" fill="#F5C243"/>
</svg>
