<svg width="15" height="12" viewBox="0 0 15 12" fill="none" xmlns="http://www.w3.org/2000/svg">
<path fill-rule="evenodd" clip-rule="evenodd" d="M0.245235 1.31042C0 1.82381 0 2.49587 0 3.84V8.16C0 9.50416 0 10.1762 0.245235 10.6896C0.460951 11.1412 0.805155 11.5083 1.22852 11.7384C1.70982 12 2.33988 12 3.6 12H11.4C12.6601 12 13.2901 12 13.7715 11.7384C14.1949 11.5083 14.5391 11.1412 14.7548 10.6896C15 10.1762 15 9.50416 15 8.16V3.84C15 2.49587 15 1.82381 14.7548 1.31042C14.5391 0.858832 14.1949 0.491681 13.7715 0.261584C13.2901 0 12.6601 0 11.4 0H3.6C2.33988 0 1.70982 0 1.22852 0.261584C0.805155 0.491681 0.460951 0.858832 0.245235 1.31042ZM3.31202 3.50077C3.05353 3.31696 2.7043 3.39146 2.53197 3.66718C2.35965 3.9429 2.4295 4.31542 2.68798 4.49923L3.43798 5.03256L3.52525 5.09463C4.64898 5.8939 5.3177 6.36955 6.03956 6.60154C6.99204 6.90765 8.00797 6.90765 8.96047 6.60154C9.68227 6.36954 10.351 5.8939 11.4748 5.09463L11.562 5.03256L12.312 4.49923C12.5705 4.31542 12.6404 3.9429 12.468 3.66718C12.2957 3.39146 11.9464 3.31696 11.688 3.50077L10.938 4.0341C9.70027 4.91425 9.17752 5.2785 8.63587 5.45255C7.8951 5.69064 7.10492 5.69064 6.3641 5.45255C5.8225 5.2785 5.29973 4.91425 4.06202 4.0341L3.31202 3.50077Z" fill="#F5C243"/>
</svg>
