<svg width="35" height="35" viewBox="0 0 35 35" fill="none" xmlns="http://www.w3.org/2000/svg">
<circle cx="17.5" cy="17.5" r="17.5" transform="rotate(-90 17.5 17.5)" fill="#2C2C2C"/>
<path d="M16.5 22C16.5 22.2761 16.7239 22.5 17 22.5C17.2761 22.5 17.5 22.2761 17.5 22L16.5 22ZM17.3536 13.6464C17.1583 13.4512 16.8417 13.4512 16.6464 13.6464L13.4645 16.8284C13.2692 17.0237 13.2692 17.3403 13.4645 17.5355C13.6597 17.7308 13.9763 17.7308 14.1716 17.5355L17 14.7071L19.8284 17.5355C20.0237 17.7308 20.3403 17.7308 20.5355 17.5355C20.7308 17.3403 20.7308 17.0237 20.5355 16.8284L17.3536 13.6464ZM17.5 22L17.5 14L16.5 14L16.5 22L17.5 22Z" fill="white"/>
</svg>
