<svg width="35" height="35" viewBox="0 0 35 35" fill="none" xmlns="http://www.w3.org/2000/svg">
<circle cx="17.5" cy="17.5" r="17.5" fill="#F5C243"/>
<path fill-rule="evenodd" clip-rule="evenodd" d="M19.0402 12.0502L23.495 16.505C23.7683 16.7784 23.7683 17.2216 23.495 17.495L19.0402 21.9497C18.7668 22.2231 18.3236 22.2231 18.0503 21.9497C17.7769 21.6764 17.7769 21.2332 18.0503 20.9598L21.3101 17.7L12 17.7C11.6134 17.7 11.3 17.3866 11.3 17C11.3 16.6134 11.6134 16.3 12 16.3L21.3101 16.3L18.0503 13.0402C17.7769 12.7668 17.7769 12.3236 18.0503 12.0502C18.3236 11.7769 18.7668 11.7769 19.0402 12.0502Z" fill="black"/>
</svg>
