<svg width="23" height="16" viewBox="0 0 23 16" fill="none" xmlns="http://www.w3.org/2000/svg">
<path fill-rule="evenodd" clip-rule="evenodd" d="M8.01667 0.0619923C6.02357 0.15896 2.84445 0.439694 2.22363 0.573495C1.3796 0.755449 0.575 1.54685 0.364092 2.40262C0.205832 3.04457 0 6.20706 0 7.99608C0 9.7851 0.205832 12.9476 0.364092 13.5895C0.575 14.4453 1.37942 15.2366 2.22363 15.4187C2.54141 15.4872 4.31304 15.6737 5.6377 15.7781C9.40138 16.0745 13.5419 16.074 17.3769 15.7767C18.6854 15.6752 20.4478 15.4895 20.7764 15.4185C21.6249 15.2351 22.4241 14.449 22.6359 13.5895C22.7942 12.9476 23 9.7851 23 7.99608C23 6.20706 22.7942 3.04457 22.6359 2.40262C22.425 1.54685 21.6206 0.755581 20.7764 0.573451C20.1223 0.432355 17.0327 0.164797 14.8467 0.0599581C13.1621 -0.0208265 9.69728 -0.0198093 8.01667 0.0619923ZM12.4825 6.11686C14.0409 7.13827 15.3159 7.98392 15.3159 7.99608C15.3159 8.01828 9.68462 11.7195 9.60874 11.7471C9.58503 11.7558 9.56836 10.2074 9.56836 7.99608C9.56836 5.78479 9.58503 4.23635 9.60874 4.24502C9.63098 4.25311 10.9242 5.09544 12.4825 6.11686Z" fill="white"/>
</svg>
